<?xml version="1.0" encoding="UTF-8" standalone="no"?>
<!-- Created with Inkscape (http://www.inkscape.org/) -->

<svg
   width="102.62732mm"
   height="139.89041mm"
   viewBox="0 0 102.62732 139.89041"
   version="1.1"
   id="svg865"
   inkscape:version="1.1.2 (0a00cf5339, 2022-02-04)"
   sodipodi:docname="logo.svg"
   inkscape:export-filename="/home/ben/Documents/pynoon/cooper.png"
   inkscape:export-xdpi="300"
   inkscape:export-ydpi="300"
   xmlns:inkscape="http://www.inkscape.org/namespaces/inkscape"
   xmlns:sodipodi="http://sodipodi.sourceforge.net/DTD/sodipodi-0.dtd"
   xmlns="http://www.w3.org/2000/svg"
   xmlns:svg="http://www.w3.org/2000/svg"
   xmlns:rdf="http://www.w3.org/1999/02/22-rdf-syntax-ns#"
   xmlns:cc="http://creativecommons.org/ns#"
   xmlns:dc="http://purl.org/dc/elements/1.1/">
  <defs
     id="defs859" />
  <sodipodi:namedview
     id="base"
     pagecolor="#ffffff"
     bordercolor="#666666"
     borderopacity="1.0"
     inkscape:pageopacity="0.0"
     inkscape:pageshadow="2"
     inkscape:zoom="0.64"
     inkscape:cx="155.46875"
     inkscape:cy="103.90625"
     inkscape:document-units="mm"
     inkscape:current-layer="layer1"
     showgrid="false"
     inkscape:object-paths="false"
     inkscape:snap-smooth-nodes="false"
     inkscape:snap-others="true"
     inkscape:window-width="1856"
     inkscape:window-height="1016"
     inkscape:window-x="64"
     inkscape:window-y="27"
     inkscape:window-maximized="1"
     fit-margin-top="0"
     fit-margin-right="0"
     fit-margin-bottom="0"
     fit-margin-left="0"
     inkscape:pagecheckerboard="0" />
  <metadata
     id="metadata862">
    <rdf:RDF>
      <cc:Work
         rdf:about="">
        <dc:format>image/svg+xml</dc:format>
        <dc:type
           rdf:resource="http://purl.org/dc/dcmitype/StillImage" />
      </cc:Work>
    </rdf:RDF>
  </metadata>
  <g
     inkscape:label="Layer 1"
     inkscape:groupmode="layer"
     id="layer1"
     transform="translate(-74.182206,-55.17857)">
    <g
       id="g828"
       transform="translate(22.68634,-4.0547949)">
      <path
         style="fill:#915000;fill-opacity:1;stroke:none;stroke-width:0.264583px;stroke-linecap:butt;stroke-linejoin:miter;stroke-opacity:1"
         d="m 133.04439,90.69426 -1.10883,-21.008281 c -1.85462,-16.677461 -38.835568,-10.961144 -42.419708,0.225652 -0.52103,1.626188 0,18.050954 0,18.050954 z"
         id="path3573-1-5-3"
         inkscape:connector-curvature="0"
         sodipodi:nodetypes="ccscc" />
      <path
         style="fill:#633700;fill-opacity:1;stroke:none;stroke-width:0.264583px;stroke-linecap:butt;stroke-linejoin:miter;stroke-opacity:1"
         d="m 129.16789,86.108811 c 11.38468,1.66991 22.70863,-6.566365 24.46061,-3.87899 2.59279,4.513612 -5.06598,17.53571 -21.57768,22.979239 -45.926788,15.141 -74.754788,-3.56988 -62.133528,-20.461165 13.34132,-17.855041 38.837888,-1.633253 59.250598,1.360916 z"
         id="path3575-0-6-6"
         inkscape:connector-curvature="0"
         sodipodi:nodetypes="scsss" />
      <ellipse
         style="vector-effect:none;fill:#422400;fill-opacity:1;stroke:none;stroke-width:1.32292;stroke-linecap:round;stroke-linejoin:round;stroke-miterlimit:10;stroke-dasharray:none;stroke-dashoffset:0;stroke-opacity:1;paint-order:normal"
         id="path3633-3-2-7"
         cx="-97.153404"
         cy="111.82896"
         rx="27.60202"
         ry="7.6583619"
         transform="matrix(-0.99073323,0.13582215,0.13582215,0.99073323,0,0)"
         inkscape:transform-center-x="-3.3704927"
         inkscape:transform-center-y="-4.262483" />
      <path
         sodipodi:nodetypes="sssssssssss"
         inkscape:connector-curvature="0"
         id="path815-9-5"
         d="M 152.15492,124.70823 C 159.42663,94.421509 108.61949,75.557119 89.726302,95.944051 56.380732,131.92602 151.09115,184.59793 115.44279,180.30431 103.88987,178.91283 96.947222,168.915 85.037502,171.73385 c -10.73718,2.54132 -7.68154,9.83584 -15.32667,10.3826 -4.78535,0.34223 -9.7667,-11.10922 -15.6522,-13.45695 -7.67066,-3.05985 5.66173,25.7645 16.41284,27.23374 13.17567,1.80058 11.45727,-11.22359 21.86547,-8.48126 7.41002,1.95238 18.917468,16.05641 39.012598,10.3698 42.92522,-12.14718 -26.08962,-62.79778 -27.1573,-80.20694 -1.13938,-18.578259 45.95537,15.49389 47.96268,7.13339 z"
         style="fill:#306998;fill-opacity:1;stroke:none;stroke-width:0.264583px;stroke-linecap:butt;stroke-linejoin:miter;stroke-opacity:1" />
      <path
         inkscape:connector-curvature="0"
         style="fill:#633700;fill-opacity:1;stroke:none;stroke-width:0.264583px;stroke-linecap:butt;stroke-linejoin:miter;stroke-opacity:1"
         d="m 87.284202,76.493353 c 12.902538,-0.01103 28.488028,7.650411 41.883848,9.615337 11.38468,1.669912 22.70827,-6.566231 24.46022,-3.878852 1.05118,1.829878 0.41679,5.058372 -1.80875,8.613221 l -13.48548,1.97717 A 7.6583622,27.602019 82.193836 0 0 110.4016,90.01023 7.6583622,27.602019 82.193836 0 0 84.098152,100.77294 l -12.25082,1.79656 c -5.57469,-4.9571 -6.64181,-11.515679 -1.93007,-17.821527 4.58609,-6.137673 10.60848,-8.248809 17.36694,-8.25462 z"
         id="path3575-0-7-1-3" />
      <circle
         transform="scale(-1,1)"
         r="5.5751495"
         cy="99.60244"
         cx="-124.64046"
         id="path2255-7-5"
         style="vector-effect:none;fill:#ffffff;fill-opacity:1;stroke:none;stroke-width:1.865;stroke-linecap:round;stroke-linejoin:round;stroke-miterlimit:4;stroke-dasharray:none;stroke-dashoffset:0;stroke-opacity:1;paint-order:normal" />
      <path
         sodipodi:nodetypes="sssssscsssscs"
         inkscape:connector-curvature="0"
         id="path815-9-2-6"
         d="m 88.472012,114.15847 c -3.55945,8.99543 6.66115,23.11333 18.316288,35.86972 14.55031,15.9251 23.33467,25.77809 19.94236,34.3472 -2.36601,5.97662 -7.86212,9.06578 -12.7316,9.05007 -7.04968,-0.0227 -11.42728,-2.12011 -19.013638,-6.68884 -10.5599,-6.35948 -13.92054,7.72177 -21.26971,8.09691 -9.93377,0.50706 -22.71379,-17.42958 -21.04359,-26.29496 -5.03064,0.89317 7.04823,25.88542 17.79936,27.35466 13.17567,1.80058 11.45727,-11.22359 21.86546,-8.48126 7.41002,1.95238 18.917468,16.05641 39.012598,10.3698 42.92522,-12.14718 -26.08961,-62.79777 -27.15729,-80.20693 -0.35058,-5.71629 3.86523,-6.4481 9.92906,-4.96511 -7.44778,-5.51664 -23.480798,-3.93151 -25.649298,1.54874 z"
         style="opacity:0;fill:#d78282;fill-opacity:1;stroke:none;stroke-width:0.264583px;stroke-linecap:butt;stroke-linejoin:miter;stroke-opacity:1" />
      <path
         sodipodi:nodetypes="sssssscsssscs"
         inkscape:connector-curvature="0"
         id="path815-9-5-3"
         d="m 88.472012,114.15847 c -7.895392,17.66492 43.574258,53.17186 39.184918,68.47255 -2.00639,6.99401 -8.45739,10.51107 -13.63916,10.79019 -7.04001,0.37922 -13.18502,-3.39746 -19.052868,-6.69687 -11.13236,-6.25959 -13.57727,7.90801 -21.23924,8.11037 -8.97237,0.23697 -15.6346,-10.67541 -18.91159,-18.63175 -1.85262,-4.49806 -2.13094,-7.72061 -2.13094,-7.72061 -4.32094,1.26441 7.83901,26.05123 17.78834,27.4109 13.17567,1.80058 11.45727,-11.2236 21.86547,-8.48126 7.41002,1.95238 18.917458,16.05641 39.012598,10.3698 42.92522,-12.14718 -26.08962,-62.79779 -27.1573,-80.20695 -0.35054,-5.7157 3.86624,-6.4475 9.92907,-4.96511 0,0 -22.154211,-6.27107 -25.649298,1.54874 z"
         style="opacity:1;fill:#82b1d7;fill-opacity:1;stroke:none;stroke-width:0.264583px;stroke-linecap:butt;stroke-linejoin:miter;stroke-opacity:1" />
    </g>
  </g>
</svg>
